<svg width="240" height="240" viewBox="0 0 240 240" fill="none" xmlns="http://www.w3.org/2000/svg" role="img" aria-labelledby="title desc">
  <title id="title">Investment expert emblem</title>
  <desc id="desc">Stylized silhouette of an investment analyst with upward graph</desc>
  <defs>
    <linearGradient id="bgGradient" x1="32" y1="24" x2="208" y2="216" gradientUnits="userSpaceOnUse">
      <stop offset="0" stop-color="#38BDF8" stop-opacity="0.85" />
      <stop offset="1" stop-color="#0F172A" stop-opacity="0.1" />
    </linearGradient>
    <linearGradient id="accentGradient" x1="72" y1="104" x2="176" y2="184" gradientUnits="userSpaceOnUse">
      <stop offset="0" stop-color="#C084FC" />
      <stop offset="1" stop-color="#22D3EE" />
    </linearGradient>
    <filter id="shadow" x="0" y="0" width="240" height="240" filterUnits="userSpaceOnUse" color-interpolation-filters="sRGB">
      <feDropShadow dx="0" dy="18" stdDeviation="24" flood-color="#0F172A" flood-opacity="0.45" />
    </filter>
  </defs>
  <g filter="url(#shadow)">
    <rect x="24" y="24" width="192" height="192" rx="48" fill="url(#bgGradient)" stroke="rgba(148, 163, 184, 0.25)" stroke-width="2" />
    <path d="M84 156c0-24 16-44 36-44s36 20 36 44v8c0 8.837-7.163 16-16 16H100c-8.837 0-16-7.163-16-16v-8z" fill="rgba(15, 23, 42, 0.72)" />
    <path d="M120 68c17.673 0 32 14.327 32 32s-14.327 32-32 32-32-14.327-32-32 14.327-32 32-32z" fill="rgba(226, 232, 240, 0.95)" />
    <path d="M76 164l24-32 28 20 40-56" stroke="url(#accentGradient)" stroke-width="12" stroke-linecap="round" stroke-linejoin="round" />
    <circle cx="168" cy="100" r="12" fill="#22D3EE" />
    <circle cx="100" cy="176" r="10" fill="#C084FC" />
  </g>
</svg>
